<svg width="65" height="66" viewBox="0 0 65 66" fill="none" xmlns="http://www.w3.org/2000/svg">
<path d="M61.2564 1.07104e-05L47.0201 4.1852L52.784 0.24149C49.1451 1.07263 44.5478 2.69841 38.77 5.32241L29.3393 15.261L32.6865 8.31845C29.4504 10.138 26.0198 12.5233 22.7142 15.3172L20.5197 24.3446L20.0475 17.6618C16.7836 20.6943 13.7141 24.0638 11.1724 27.6158C8.5015 31.3363 6.41397 35.2674 5.36812 39.1844L1.46251 36.545C1.81252 39.8724 2.89448 42.7645 4.6695 45.418L-7.6883e-06 43.9719C1.06112 47.2712 2.79586 49.4053 5.72923 51.1321C4.08616 55.8073 3.31531 60.6931 2.48752 65.5648L5.04311 66C8.00704 36.1379 28.9226 17.1002 47.8256 8.66523L48.784 11.1053C31.881 18.7569 18.7419 31.6733 11.8668 50.2897C14.3807 50.3038 16.8391 49.9949 19.1169 49.4053L19.7975 40.8552L21.6169 48.6471C23.1309 48.0855 24.5198 47.4116 25.7559 46.6254L22.8809 40.5182L27.4365 45.404C28.5476 44.5054 29.4643 43.4946 30.1587 42.3855C34.381 35.7167 38.7977 29.09 47.4923 23.5444L41.145 21.27L50.8812 21.5648C52.4646 20.7505 54.1313 19.7537 55.3952 18.813L48.4923 18.2515L58.8674 15.7805C59.673 14.9662 60.423 14.1098 61.1036 13.2534C63.5064 10.1731 65.1314 6.96645 64.7425 4.05043C64.562 2.59172 63.7008 1.22005 62.298 0.452085C61.9508 0.26957 61.5758 0.108115 61.2564 1.07104e-05Z" fill="url(#paint0_angular_34_473)"/>
<defs>
<radialGradient id="paint0_angular_34_473" cx="0" cy="0" r="1" gradientUnits="userSpaceOnUse" gradientTransform="translate(32.4 33) rotate(90) scale(33 32.4)">
<stop/>
<stop offset="1" stop-opacity="0"/>
</radialGradient>
</defs>
</svg>
