<svg width="17" height="13" viewBox="0 0 17 13" fill="none" xmlns="http://www.w3.org/2000/svg">
<g clip-path="url(#clip0_42_413)">
<path d="M1.59375 -0.0395508C0.713867 -0.0395508 0 0.692752 0 1.59536C0 2.10967 0.235742 2.59333 0.6375 2.90328L7.8625 8.46197C8.24102 8.75149 8.75898 8.75149 9.1375 8.46197L16.3625 2.90328C16.7643 2.59333 17 2.10967 17 1.59536C17 0.692752 16.2861 -0.0395508 15.4062 -0.0395508H1.59375ZM0 3.77524V10.8598C0 12.0622 0.95293 13.0397 2.125 13.0397H14.875C16.0471 13.0397 17 12.0622 17 10.8598V3.77524L9.775 9.33393C9.01797 9.91636 7.98203 9.91636 7.225 9.33393L0 3.77524Z" fill="#00B2FF"/>
</g>
<defs>
<clipPath id="clip0_42_413">
<rect width="17" height="13" fill="white"/>
</clipPath>
</defs>
</svg>
