<svg width="14" height="18" viewBox="0 0 14 18" fill="none" xmlns="http://www.w3.org/2000/svg">
<mask id="mask0_42_397" style="mask-type:luminance" maskUnits="userSpaceOnUse" x="0" y="0" width="14" height="18">
<path d="M14 0H0V18H14V0Z" fill="white"/>
</mask>
<g mask="url(#mask0_42_397)">
<path d="M2.94931 0.55289C3.16071 0.432135 3.39566 0.357241 3.63857 0.33318C3.88148 0.30912 4.12678 0.336444 4.35819 0.413337C4.5896 0.490231 4.80183 0.614935 4.98077 0.779172C5.15972 0.943401 5.30129 1.14341 5.39608 1.3659L6.51653 3.99156C6.72198 4.47317 6.69183 5.02162 6.43524 5.47875L5.35509 7.40407C5.29919 7.50383 5.27032 10.3854 5.27127 7.73022C5.27222 7.84424 5.30297 7.95605 5.36053 8.05484L7.07406 10.9902C7.13181 11.0891 7.21455 11.1715 7.31409 11.2293C7.41363 11.2872 7.52668 11.3187 7.64211 11.3205L9.8672 11.3578C10.128 11.3621 10.3844 11.425 10.6171 11.5418C10.8497 11.6585 11.0525 11.826 11.2101 12.0317L12.9489 14.3042C13.574 15.1212 13.3338 16.2946 12.4377 16.8055L11.1887 17.5187C10.2948 18.0291 9.15824 18.0561 8.26868 17.4537C5.99177 15.9127 4.09488 13.8845 2.71873 11.5194C1.33592 9.15852 0.508247 6.52002 0.297106 3.7996C0.215166 2.73773 0.80737 1.77675 1.70125 1.26634L2.95026 0.553142L2.94931 0.55289Z" fill="#00B2FF"/>
</g>
</svg>
