<svg width="61" height="43" viewBox="0 0 61 43" fill="none" xmlns="http://www.w3.org/2000/svg">
<g clip-path="url(#clip0_42_33)">
<path d="M24.4016 12.2812V30.7147L40.2512 21.5018L24.4016 12.2812Z" fill="white"/>
<path d="M30.6964 0H31.0357C34.1698 0.0114779 50.0498 0.126257 54.3315 1.2817C55.6259 1.63433 56.8054 2.32168 57.7522 3.27506C58.6989 4.22843 59.3797 5.41444 59.7265 6.71457C60.1116 8.16843 60.3823 10.0929 60.5653 12.0786L60.6035 12.4765L60.6874 13.4712L60.7179 13.8691C60.9657 17.366 60.9962 20.6411 61 21.3565V21.6435C60.9962 22.3857 60.9619 25.8826 60.6874 29.525L60.6569 29.9267L60.6225 30.3246C60.4319 32.513 60.1498 34.6862 59.7265 36.2854C59.3808 37.5861 58.7003 38.7727 57.7534 39.7262C56.8065 40.6797 55.6264 41.3667 54.3315 41.7183C49.9087 42.912 33.0984 42.9962 30.7688 43H30.2274C29.0493 43 24.1766 42.977 19.0675 42.801L18.4193 42.7781L18.0876 42.7628L17.4357 42.736L16.7837 42.7092C12.5515 42.5218 8.52147 42.2195 6.66467 41.7145C5.3702 41.3632 4.19045 40.6768 3.24359 39.724C2.29673 38.7712 1.61602 37.5854 1.26964 36.2854C0.846428 34.69 0.564285 32.513 0.373648 30.3246L0.343146 29.9229L0.312645 29.525C0.124477 26.9325 0.020207 24.3346 0 21.7353L0 21.2647C0.00762548 20.4421 0.0381274 17.5994 0.244015 14.4621L0.270704 14.0681L0.282143 13.8691L0.312645 13.4712L0.396525 12.4765L0.434652 12.0786C0.617664 10.0929 0.888368 8.16461 1.27345 6.71457C1.61925 5.41392 2.2997 4.22735 3.2466 3.27381C4.19349 2.32027 5.37356 1.63327 6.66848 1.2817C8.52528 0.784323 12.5553 0.478245 16.7875 0.286947L17.4357 0.260165L18.0914 0.23721L18.4193 0.225732L19.0713 0.198951C22.6999 0.0817789 26.33 0.0167304 29.9605 0.00382614H30.6964V0ZM24.4015 12.2813V30.7148L40.2511 21.5019L24.4015 12.2813Z" fill="#FF0000"/>
</g>
<defs>
<clipPath id="clip0_42_33">
<rect width="61" height="43" fill="white"/>
</clipPath>
</defs>
</svg>
