<?xml version="1.0" encoding="utf-8"?><svg viewBox="0 0 65 66" xmlns="http://www.w3.org/2000/svg" xmlns:xlink="http://www.w3.org/1999/xlink"><style>:root>svg{display:none}:root>svg:target{display:block}</style><svg fill="none" viewBox="0 0 65 66" id="hi-01" xmlns="http://www.w3.org/2000/svg"><path d="M61.256 0L47.02 4.185 52.784.241c-3.639.832-8.236 2.457-14.014 5.081l-9.43 9.939 3.347-6.943c-3.237 1.82-6.667 4.205-9.973 7l-2.194 9.027-.473-6.683c-3.263 3.032-6.333 6.402-8.875 9.954-2.67 3.72-4.758 7.651-5.804 11.568l-3.905-2.639c.35 3.327 1.431 6.22 3.207 8.873L0 43.972c1.061 3.3 2.796 5.433 5.73 7.16-1.644 4.675-2.415 9.561-3.242 14.433L5.043 66c2.964-29.862 23.88-48.9 42.783-57.335l.958 2.44C31.881 18.757 18.742 31.673 11.867 50.29a28.432 28.432 0 007.25-.885l.68-8.55 1.82 7.792c1.514-.561 2.903-1.235 4.139-2.022l-2.875-6.107 4.555 4.886c1.112-.899 2.028-1.91 2.723-3.019 4.222-6.668 8.639-13.295 17.333-18.84l-6.347-2.275 9.736.295c1.584-.815 3.25-1.811 4.514-2.752l-6.903-.561 10.375-2.471a31.255 31.255 0 002.237-2.528c2.402-3.08 4.027-6.287 3.639-9.203A4.769 4.769 0 0062.298.452 7.515 7.515 0 0061.256 0z" fill="url(#apaint0_angular_34_473)"/><defs><radialGradient id="apaint0_angular_34_473" cx="0" cy="0" r="1" gradientUnits="userSpaceOnUse" gradientTransform="matrix(0 33 -32.4 0 32.4 33)"><stop/><stop offset="1" stop-opacity="0"/></radialGradient></defs></svg><svg fill="none" viewBox="0 0 56 34" id="hi-03" xmlns="http://www.w3.org/2000/svg"><path d="M25.2 0c-1.68 0-2.8 1.19-2.8 2.833v17h-5.6V5.667S4.2 10.54 4.2 26.917c0 0-4.2.793-4.2 7.083h56c-.28-6.29-4.2-7.083-4.2-7.083 0-16.377-12.6-21.25-12.6-21.25v14.166h-5.6v-17C33.6 1.19 32.536 0 30.8 0h-5.6z" fill="url(#bpaint0_angular_34_483)"/><defs><radialGradient id="bpaint0_angular_34_483" cx="0" cy="0" r="1" gradientUnits="userSpaceOnUse" gradientTransform="matrix(0 17 -28 0 28 17)"><stop/><stop offset="1" stop-opacity="0"/></radialGradient></defs></svg><svg fill="none" viewBox="0 0 60 52" id="hi-04" xmlns="http://www.w3.org/2000/svg"><mask id="ca" style="mask-type:luminance" maskUnits="userSpaceOnUse" x="0" y="0" width="60" height="52"><path fill-rule="evenodd" clip-rule="evenodd" d="M30 49.99c18.666.144 28-1.373 28-4.548 0-4.76-21.82-28.773-28-28.773S2 41.177 2 45.441c0 2.844 9.334 4.36 28 4.55z" fill="url(#cpaint0_angular_34_488)" stroke="#fff" stroke-width="4" stroke-linejoin="round"/><path d="M25.885 32.86l-5.069 6.027 5.069-6.027z" fill="url(#cpaint1_angular_34_488)"/><path d="M25.885 32.86l-5.069 6.027" stroke="#000" stroke-width="4" stroke-linecap="round"/><path d="M30.7 6.944c.928 0 1.819-.366 2.475-1.017A3.458 3.458 0 0034.2 3.472c0-.92-.369-1.804-1.025-2.455A3.514 3.514 0 0030.7 0c-.928 0-1.819.366-2.475 1.017A3.458 3.458 0 0027.2 3.472c0 .92.369 1.804 1.025 2.455A3.514 3.514 0 0030.7 6.944zM44 13.888c.743 0 1.455-.293 1.98-.814.525-.52.82-1.227.82-1.964 0-.736-.295-1.443-.82-1.964A2.812 2.812 0 0044 8.333c-.743 0-1.455.292-1.98.813a2.766 2.766 0 00-.82 1.964c0 .737.295 1.443.82 1.964.525.521 1.237.814 1.98.814zm-30.8 6.944c.743 0 1.455-.293 1.98-.814.525-.52.82-1.227.82-1.964 0-.736-.295-1.443-.82-1.964a2.811 2.811 0 00-1.98-.813c-.743 0-1.455.292-1.98.813a2.766 2.766 0 00-.82 1.964c0 .737.295 1.443.82 1.964.525.521 1.237.814 1.98.814zm7.7-8.333c.557 0 1.091-.22 1.485-.61a2.074 2.074 0 000-2.946 2.108 2.108 0 00-2.97 0 2.075 2.075 0 000 2.946c.394.39.928.61 1.485.61z" fill="url(#cpaint2_angular_34_488)"/></mask><g mask="url(#ca)"><path d="M-3.6-8.333h67.2V58.33H-3.6V-8.333z" fill="url(#cpaint3_angular_34_488)"/></g><defs><radialGradient id="cpaint0_angular_34_488" cx="0" cy="0" r="1" gradientUnits="userSpaceOnUse" gradientTransform="matrix(0 16.6652 -28 0 30 33.335)"><stop stop-color="#fff"/><stop offset="1" stop-color="#fff" stop-opacity="0"/></radialGradient><radialGradient id="cpaint1_angular_34_488" cx="0" cy="0" r="1" gradientUnits="userSpaceOnUse" gradientTransform="matrix(0 3.01367 -2.53433 0 23.35 35.873)"><stop stop-color="#fff"/><stop offset="1" stop-color="#fff" stop-opacity="0"/></radialGradient><radialGradient id="cpaint2_angular_34_488" cx="0" cy="0" r="1" gradientUnits="userSpaceOnUse" gradientTransform="matrix(0 10.4159 -18.2 0 28.6 10.416)"><stop stop-color="#fff"/><stop offset="1" stop-color="#fff" stop-opacity="0"/></radialGradient><radialGradient id="cpaint3_angular_34_488" cx="0" cy="0" r="1" gradientUnits="userSpaceOnUse" gradientTransform="matrix(0 33.3309 -33.6 0 30 24.998)"><stop/><stop offset="1" stop-opacity="0"/></radialGradient></defs></svg></svg>